<?xml version="1.0" encoding="iso-8859-1"?>
<!-- Generator: Adobe Illustrator 19.0.0, SVG Export Plug-In . SVG Version: 6.00 Build 0)  -->
<svg version="1.1" id="Layer_1" xmlns="http://www.w3.org/2000/svg" xmlns:xlink="http://www.w3.org/1999/xlink" x="0px" y="0px"
	 viewBox="0 0 512 512" style="enable-background:new 0 0 512 512;" xml:space="preserve">
<g>
	<path style="fill:#99522E;" d="M283.826,512c-9.217,0-16.696-7.479-16.696-16.696V336.489c0-9.217,7.479-16.696,16.696-16.696
		c9.217,0,16.696,7.479,16.696,16.696v158.816C300.522,504.521,293.043,512,283.826,512z"/>
	<path style="fill:#99522E;" d="M350.609,512c-9.217,0-16.696-7.479-16.696-16.696v-67.793c0-9.217,7.479-16.696,16.696-16.696
		c9.217,0,16.696,7.479,16.696,16.696v67.793C367.304,504.521,359.826,512,350.609,512z"/>
</g>
<path style="fill:#43BFBF;" d="M495.304,512h-2.978c-78.946,0-150.402-46.728-182.033-119.054
	c-15.695-35.859-51.119-59.032-90.271-59.032h-2.979c-9.217,0-16.696-7.479-16.696-16.696v-66.783
	c0-9.217,7.479-16.696,16.696-16.696h2.979c78.946,0,150.402,46.728,182.033,119.054c15.695,35.859,51.119,59.032,90.271,59.032
	h2.978c9.217,0,16.696,7.479,16.696,16.696v66.783C512,504.521,504.521,512,495.304,512z"/>
<path style="fill:#E6563A;" d="M150.261,400.696H83.478c-9.217,0-16.696-7.479-16.696-16.696c0-9.217,7.479-16.696,16.696-16.696
	h66.783c9.217,0,16.696,7.479,16.696,16.696C166.957,393.217,159.478,400.696,150.261,400.696z"/>
<path style="fill:#D9472B;" d="M150.261,367.304H116.87v33.391h33.391c9.217,0,16.696-7.479,16.696-16.696
	C166.957,374.783,159.478,367.304,150.261,367.304z"/>
<path style="fill:#E6563A;" d="M150.261,467.478H83.478c-9.217,0-16.696-7.479-16.696-16.696c0-9.217,7.479-16.696,16.696-16.696
	h66.783c9.217,0,16.696,7.479,16.696,16.696C166.957,460,159.478,467.478,150.261,467.478z"/>
<path style="fill:#D9472B;" d="M150.261,434.087H116.87v33.391h33.391c9.217,0,16.696-7.479,16.696-16.696
	C166.957,441.565,159.478,434.087,150.261,434.087z"/>
<path style="fill:#E6563A;" d="M228.143,111.304H7.791l-2.899-6.239L105.066,4.892c6.521-6.521,17.087-6.521,23.609,0
	l100.174,100.174L228.143,111.304z"/>
<path style="fill:#D9472B;" d="M228.143,111.304H116.87V0c4.272,0,8.544,1.631,11.804,4.892l100.174,100.174L228.143,111.304z"/>
<path style="fill:#FFC033;" d="M217.043,100.174H16.696C7.479,100.174,0,107.652,0,116.87v378.435C0,504.521,7.479,512,16.696,512
	h50.087c9.217,0,16.696-7.479,16.696-16.696V333.913h66.783v161.391c0,9.217,7.479,16.696,16.696,16.696h50.087
	c9.217,0,16.696-7.479,16.696-16.696V116.87C233.739,107.652,226.261,100.174,217.043,100.174z M166.957,250.435
	c0,9.217-7.479,16.696-16.696,16.696H83.478c-9.217,0-16.696-7.479-16.696-16.696v-33.391c0-27.619,22.468-50.087,50.087-50.087
	s50.087,22.468,50.087,50.087V250.435z"/>
<path style="fill:#F9A926;" d="M217.043,100.174H116.87v66.783c27.619,0,50.087,22.468,50.087,50.087v33.391
	c0,9.217-7.479,16.696-16.696,16.696H116.87v66.783h33.391v161.391c0,9.217,7.479,16.696,16.696,16.696h50.087
	c9.217,0,16.696-7.479,16.696-16.696V116.87C233.739,107.652,226.261,100.174,217.043,100.174z"/>
<g>
</g>
<g>
</g>
<g>
</g>
<g>
</g>
<g>
</g>
<g>
</g>
<g>
</g>
<g>
</g>
<g>
</g>
<g>
</g>
<g>
</g>
<g>
</g>
<g>
</g>
<g>
</g>
<g>
</g>
</svg>
